<?xml version="1.0" encoding="utf-8"?>
<!-- Generator: Adobe Illustrator 25.0.0, SVG Export Plug-In . SVG Version: 6.00 Build 0)  -->
<svg version="1.1" id="Capa_1" xmlns="http://www.w3.org/2000/svg" xmlns:xlink="http://www.w3.org/1999/xlink" x="0px" y="0px"
	 viewBox="0 0 743.7 149.2" style="enable-background:new 0 0 743.7 149.2;" xml:space="preserve">
<style type="text/css">
	.st0{fill:#0039A6;}
	.st1{fill:#05BE50;}
</style>
<g>
	<path class="st0" d="M498,101.4h-18.4V63.9h17c3.4,0,6.1,0.8,8.1,2.5c2,1.6,3,3.9,3,6.7c0,1.9-0.5,3.5-1.4,4.8
		c-0.9,1.4-2.1,2.3-3.6,2.9c2.4,0.4,4.3,1.5,5.8,3.3c1.5,1.8,2.2,4,2.2,6.7c0,3.2-1.1,5.7-3.4,7.7
		C504.9,100.4,501.9,101.4,498,101.4 M485.4,69.4V79h10.1c2,0,3.5-0.4,4.6-1.3c1.1-0.8,1.6-2,1.6-3.6c0-1.6-0.5-2.8-1.6-3.6
		c-1.1-0.8-2.6-1.2-4.6-1.2H485.4z M485.4,84.2V96h11.5c2.3,0,4.1-0.5,5.4-1.6c1.3-1.1,2-2.5,2-4.4c0-1.9-0.6-3.3-1.9-4.3
		c-1.3-1-3.1-1.5-5.4-1.5H485.4z"/>
	<path class="st0" d="M515.7,88.2c0-4,1.2-7.2,3.7-9.8c2.5-2.6,5.8-4,9.7-4c2.7,0,5,0.7,6.9,2.1c3.7,2.6,5.6,6.6,5.6,11.9V90h-20.1
		c0.4,2.2,1.4,3.9,3.2,5.2c1.8,1.2,4,1.9,6.7,1.9c3,0,5.8-0.8,8.5-2.4v4.9c-2.4,1.7-5.7,2.6-9.7,2.6c-4,0-7.5-1.3-10.3-3.9
		C517.1,95.7,515.7,92.3,515.7,88.2 M521.6,85.6h14.2c-0.1-1.6-0.7-3.1-1.9-4.3c-1.2-1.3-2.9-1.9-5-1.9c-2,0-3.7,0.6-5.1,1.8
		C522.6,82.3,521.8,83.8,521.6,85.6"/>
	<path class="st0" d="M554,84.1v17.3h-5.8V75.1h5.8v3.5c2.6-2.8,5.8-4.2,9.6-4.2c3.1,0,5.5,1,7.2,2.9c1.7,1.9,2.5,4.6,2.5,8v16.1
		h-5.8V86.6c0-4.5-2.1-6.8-6.2-6.8c-1.4,0-2.8,0.4-4.2,1.2C555.8,81.8,554.7,82.9,554,84.1"/>
	<path class="st0" d="M579.2,88.2c0-4,1.2-7.2,3.7-9.8c2.5-2.6,5.8-4,9.7-4c2.7,0,5,0.7,6.9,2.1c3.7,2.6,5.6,6.6,5.6,11.9V90H585
		c0.4,2.2,1.4,3.9,3.2,5.2c1.8,1.2,4,1.9,6.7,1.9c3,0,5.8-0.8,8.5-2.4v4.9c-2.4,1.7-5.7,2.6-9.7,2.6c-4,0-7.5-1.3-10.3-3.9
		C580.6,95.7,579.2,92.3,579.2,88.2 M585.1,85.6h14.2c-0.1-1.6-0.7-3.1-1.9-4.3c-1.2-1.3-2.9-1.9-5-1.9c-2,0-3.7,0.6-5.1,1.8
		C586,82.3,585.2,83.8,585.1,85.6"/>
	<path class="st0" d="M619.5,75.1h17.9v26.3h-5.8V80.2h-12.1v21.2h-5.8V80.2h-4.9v-5.1h4.9v-3.4c0-2.5,0.7-4.5,2.1-6
		c1.4-1.5,3.5-2.2,6.1-2.2c2.3,0,4.3,0.4,6.2,1.1v4.9c-1.7-0.6-3.2-1-4.5-1c-2.7,0-4.1,1.4-4.1,4.3V75.1z M634.5,70.4
		c-1,0-1.9-0.3-2.6-1c-0.7-0.7-1-1.6-1-2.6c0-1,0.3-1.9,1-2.6c0.7-0.7,1.6-1.1,2.6-1.1c1,0,1.8,0.4,2.5,1.1c0.7,0.7,1,1.6,1,2.6
		c0,1-0.3,1.9-1,2.6C636.4,70.1,635.5,70.4,634.5,70.4"/>
	<path class="st0" d="M648.8,94.2v-14h-5.6v-5.1h5.6v-7.7h5.8v7.7h8.3v5.1h-8.3v12.4c0,1.5,0.3,2.5,1,3.2c0.7,0.7,1.7,1,3.1,1
		c1.4,0,2.7-0.3,4-1v5c-1.2,0.9-3.2,1.3-5.8,1.3c-2.5,0-4.5-0.7-5.9-2C649.6,98.7,648.8,96.8,648.8,94.2"/>
	<path class="st1" d="M676.1,78.4l2.9,6.2c0,0.1,0.1,0.2,0.2,0.3c0.6,0.4,3,1.3,12.3-0.7c0.4-0.1,0.9,0.2,0.9,0.7v10.5
		c0,0.2,0.1,0.3,0.2,0.4c0.4,0.5,1.7,1.8,3.6,0.4c0.1-0.1,0.2-0.2,0.2-0.3l5-13c0.1-0.3,0.3-0.4,0.6-0.5l10.1-1.9
		c0.3-0.1,0.6-0.3,0.6-0.6c0.1-1.3,0-4.2-4-4.1c0,0,0,0-0.1,0c-0.4,0.1-5.6,0.7-10.7,1.7c-0.2,0-0.4,0-0.6-0.1l-11.5-8.1
		c0,0,0,0-0.1,0c-0.2-0.1-1.6-0.8-2.6,0c-0.9,0.8-0.4,1.9-0.3,2.2c0,0,0.1,0.1,0.1,0.1l5.3,6.3c0.4,0.4,0.1,1.1-0.4,1.2l-5.2,1
		c-0.3,0.1-0.6-0.1-0.7-0.3l-2.4-3.5c0,0,0,0,0,0c-0.1-0.1-0.6-1.1-1.1-1.1c-0.6,0-1.5,1.3-1.8,1.7c-0.1,0.1-0.2,0.2-0.2,0.3
		l-0.5,0.6C676,77.9,675.9,78.1,676.1,78.4"/>
	<path class="st1" d="M354.1,87.3c0,2.2-0.6,4-1.8,5.2c-1.2,1.2-3.1,1.8-5.5,1.8h0c-2.4,0-4.4-0.5-5.7-1.5c-1.4-1-2.1-2.5-2.1-4.2
		c0-1.8,0.7-3.4,2.4-4.4c1.7-1,4.4-1.4,8.5-1.4h4.3V87.3z M345.6,58.6c-6,0-9.9,1.6-12.6,3.8v6.9c2.8-1.3,6.3-2.4,11-2.4
		c3.2,0,6,0.5,7.7,1.8c1.7,1.3,2.4,3.4,2.4,6.5v1h-4.2c-15.7,0.1-20.9,5.6-20.9,13c0,7.5,6.7,13.1,16.8,13.1h2.2
		c9.4,0,15.8-6.1,15.8-14.9v-9.8C363.7,62.5,355,58.6,345.6,58.6 M306,93.8L306,93.8c-3.2,0-6.1-0.9-8-3.3c-1.9-2.4-2.8-6-2.8-11
		c0-6.8,4.1-12.4,9.7-12.4c3.3,0,6,0.9,7.8,3.2c1.8,2.3,2.7,5.9,2.7,11.1C315.4,88.4,311.6,93.8,306,93.8 M307,58.5
		c-5.5,0-9,3.3-11.1,6.3l-0.8,1.2l0-18.2h-9.7V81c0,14.1,8.5,21.1,19.5,21.1c12.6,0,20.5-9.9,20.5-22.5
		C325.4,67.2,317.4,58.6,307,58.5 M388.7,58.5c-13.2,0-18.9,9-18.9,17.9l0.1,25h9.8V77.1c0-3.1,0.8-5.6,2.3-7.4
		c1.5-1.7,3.6-2.7,6-2.7c2.8,0,5.2,0.8,6.7,2.6c1.6,1.8,2.4,4.5,2.4,8.2l0,23.5h9.8V77C406.8,65.1,398.7,58.6,388.7,58.5
		 M202.4,47.8h-9.8l0,38.7c0,9.8,5,15.6,15.7,15.7c4.5,0,7.3-1.5,8.4-3.8v-6.1c-1.8,0.8-4.1,1.1-7.1,1.1c-2.2,0-4.1-0.6-5.3-1.9
		c-1.3-1.3-1.9-3.4-1.9-6.2V67.1h8.6c4.2,0,5.9-2.7,5.9-4.6v-3.9h-14.5V47.8z M167,58.5c-13.2,0-18.9,9-18.9,17.9v25h9.8V77.1
		c0-3.1,0.8-5.6,2.3-7.4c1.5-1.7,3.6-2.7,6-2.7c2.8,0,5.2,0.8,6.7,2.6c1.6,1.8,2.4,4.5,2.4,8.2l0,23.5h9.8V77
		C185,65.1,176.9,58.6,167,58.5 M130.5,101.4h9.9V47.8h-9.9V101.4z M260.4,74.8l0,26.6h9.9V76.7c0-3.3,0.7-5.7,2-7.3
		c1.4-1.6,3.4-2.3,5.8-2.3c1,0,1.9,0.1,2.7,0.2v-7.8c-1.2-0.6-2.9-1-5-1C264.8,58.5,260.5,66.4,260.4,74.8 M243.4,77
		c-1.9,0.7-5.1,1-10.2,1H228l0-0.5l0.1-1.4c0.2-5.1,4-9.5,9.5-9.5c2.5,0,4.7,0.6,6.2,1.7c1.5,1.1,2.4,2.9,2.4,5.1
		C246.1,75,245.3,76.3,243.4,77 M238.5,58.5c-12,0-20.6,8.7-20.6,22.8c0,12.8,10.2,20.8,20.7,20.8c6.2,0,10.1-1,12.3-2.8v-7.1
		c-3.2,1.6-7,2.1-10.4,2.1c-6.4,0-11.6-3.5-12.5-9.2l-0.1-0.5h7.5c7.1,0,12.1-0.6,15.2-2.2c3.1-1.6,4.5-3.9,4.5-7.7
		C255.3,64.7,247.2,58.6,238.5,58.5"/>
	<path class="st1" d="M434.8,79.2l-0.2-0.3l0.2-0.3c4.3-5.4,13.6-15.9,17.1-19.1h-5.4c-3.4,0-5.8,0.4-8.2,2.6
		c-4.9,4.6-9,10.1-13.1,15.5l-0.8,1l0-30.9h-9.9l0,53.5l9.9,0V79.6l0.8,1.1c4.7,6.3,9.5,12.6,14.9,18.2c1.7,1.7,4.4,2.8,6.7,2.8
		c2.7,0,4.3-0.7,5.3-2C449.4,96.4,438.1,83.2,434.8,79.2"/>
	<path class="st0" d="M89.6,91.6l-40.8,7.4V57.8l40.8-7.4V91.6z M41.1,36.3c-5.6,0-10.2,4.6-10.2,10.3v66.3h66.3
		c5.6,0,10.2-4.6,10.2-10.3l0-66.3H41.1z"/>
</g>
</svg>
